<?xml version="1.0" encoding="utf-8"?>
<!-- Generator: Adobe Illustrator 19.0.0, SVG Export Plug-In . SVG Version: 6.00 Build 0)  -->
<svg version="1.1" id="Capa_1" xmlns="http://www.w3.org/2000/svg" xmlns:xlink="http://www.w3.org/1999/xlink" x="0px" y="0px"
	 viewBox="0 0 292.9 134.3" style="enable-background:new 0 0 292.9 134.3;" xml:space="preserve">
<style type="text/css">
	.st0{fill:#CDCCCC;}
</style>
<g id="XMLID_4_">
	<g id="XMLID_5_">
		<path id="XMLID_6_" class="st0" d="M40.2,112.2c-10.3-5-17.9-11.9-22.3-20.5c-0.1-0.4-0.3-0.9-0.4-1.3l-10-34.7
			c-0.4-2-0.2-4,0.9-5.6c1.1-1.6,3-2.5,5.1-2.5l20.3-0.1c1.7,0.1,3.3,0.5,4.4,1.8l20.6,20.3l40.1,0L84.2,16.9c-0.4-2-0.2-4,0.9-5.6
			c1.1-1.6,3-2.5,5.1-2.5L110.1,9c0.7,0,8.8,0.1,16.6,3.8c3.7,1.8,6.9,4.1,9.1,6.9c5.3,6.5,31.3,40.5,38.7,50.1l81.6,0.1
			c1,0.1,8.4,0.2,15.6,3.7c8.9,4.3,13.7,12,13.6,21.5c-0.2,10.6-5.5,18.6-15.3,22.7c-6.7,2.8-13.1,2.8-13.8,2.8l-182-0.1
			C73.1,120.4,56,119.9,40.2,112.2z M29.7,86.5c3.2,5.8,8.7,10.6,16.1,14.2c13.2,6.4,28.2,7,28.4,7.1l182,0.1
			c1.7,0.1,16.5-0.4,16.6-12.9c-0.2-4.7-1.9-7.7-6.5-9.9c-4.6-2.2-9.9-2.3-10.1-2.5l-84.7-0.2c-2.1,0-3.9-0.8-5.2-2.5
			c-0.4-0.6-34.7-45.3-40.4-52.4c-1.2-1.3-2.6-2.7-4.6-3.7c-5.2-2.5-10.9-2.5-11.1-2.6l-11.4,0.1l15.1,52.8c0.4,2,0.2,4-0.9,5.6
			c-1.1,1.6-3,2.5-5.1,2.5l-51.1-0.1c-1.7-0.1-3.3-0.5-4.4-1.8L31.6,60.1l-9.3,0.1L29.7,86.5z"/>
	</g>
</g>
</svg>
