<?xml version="1.0" encoding="utf-8"?>
<!-- Generator: Adobe Illustrator 19.0.0, SVG Export Plug-In . SVG Version: 6.00 Build 0)  -->
<svg version="1.1" id="Capa_1" xmlns="http://www.w3.org/2000/svg" xmlns:xlink="http://www.w3.org/1999/xlink" x="0px" y="0px"
	 viewBox="0 0 591.5 89.5" style="enable-background:new 0 0 591.5 89.5;" xml:space="preserve">
<style type="text/css">
	.st0{fill:#2B4C21;}
	.st1{fill:none;stroke:#2B4C21;stroke-width:0.5;stroke-miterlimit:10;stroke-dasharray:12;}
</style>
<g id="XMLID_10_">
	<g id="XMLID_11_">
		<path id="XMLID_12_" class="st0" d="M537.7,37.2c-1.2-1.8-1.8-3.6-1.7-5.4c0-0.1,0-0.2,0-0.2l1.6-6.5c0.1-0.4,0.3-0.7,0.7-0.8
			s0.7-0.1,1.1,0.1l3.3,1.9c0.3,0.2,0.5,0.4,0.5,0.7l1.4,5.2l6.5,3.7l2.5-9.9c0.1-0.4,0.3-0.7,0.7-0.8c0.3-0.2,0.7-0.1,1.1,0.1
			l3.2,1.9c0.1,0.1,1.4,0.8,2.3,2.2c0.4,0.6,0.7,1.3,0.8,2c0.3,1.5,1.3,9.4,1.6,11.7l13.2,7.6c0.1,0.1,1.3,0.8,2.2,2
			c1,1.5,1.1,3.2,0.2,4.7c-1,1.7-2.6,2.5-4.6,2.2c-1.3-0.2-2.4-0.8-2.5-0.8l-29.4-16.9C542.3,41.5,539.6,39.9,537.7,37.2z M538.4,32
			c0,1.2,0.4,2.5,1.3,3.8c1.5,2.3,3.9,3.7,3.9,3.8L573,56.5c0.3,0.2,2.7,1.5,3.9-0.5c0.4-0.8,0.4-1.4-0.1-2.2
			c-0.5-0.8-1.4-1.3-1.4-1.3l-13.7-7.9c-0.3-0.2-0.5-0.5-0.6-0.9c0-0.1-1.4-10.5-1.7-12.2c-0.1-0.3-0.2-0.7-0.4-1
			c-0.6-0.9-1.5-1.4-1.6-1.5l-1.9-1l-2.5,9.9c-0.1,0.4-0.3,0.7-0.7,0.8s-0.7,0.1-1.1-0.1l-8.2-4.7c-0.3-0.2-0.5-0.4-0.5-0.7
			l-1.4-5.2l-1.5-0.8L538.4,32z"/>
	</g>
</g>
<line id="XMLID_3_" class="st1" x1="47.4" y1="7.6" x2="483.5" y2="7.6"/>
<line id="XMLID_2_" class="st1" x1="492.1" y1="7.6" x2="528.2" y2="28.5"/>
<line id="XMLID_1_" class="st1" x1="47.4" y1="7.6" x2="5.1" y2="32"/>
</svg>
