<?xml version="1.0" encoding="utf-8"?>
<!-- Generator: Adobe Illustrator 19.0.0, SVG Export Plug-In . SVG Version: 6.00 Build 0)  -->
<svg version="1.1" id="Capa_1" xmlns="http://www.w3.org/2000/svg" xmlns:xlink="http://www.w3.org/1999/xlink" x="0px" y="0px"
	 viewBox="0 0 1102.9 841.9" style="enable-background:new 0 0 1102.9 841.9;" xml:space="preserve">
<style type="text/css">
	.st0{fill:none;stroke:#697DA5;stroke-width:0.5;stroke-miterlimit:10;stroke-dasharray:12;}
	.st1{fill:#697DA5;}
</style>
<line id="XMLID_34_" class="st0" x1="941" y1="452.7" x2="155" y2="452.7"/>
<line id="XMLID_33_" class="st0" x1="155" y1="452.7" x2="96.6" y2="419"/>
<line id="XMLID_14_" class="st0" x1="941" y1="452.7" x2="1067.1" y2="379.9"/>
<g>
	<g>
		<g>
			<path id="XMLID_48_" class="st1" d="M81.1,411.9c3.4,0.2,6.5-0.4,8.9-2c0.1-0.1,0.2-0.2,0.3-0.3l7.8-7.6c0.4-0.5,0.6-1,0.6-1.6
				c-0.1-0.6-0.4-1.1-1-1.4l-5.3-3c-0.5-0.2-0.9-0.4-1.4-0.2l-8.4,2.2l-10.5-6l11.7-11.6c0.4-0.5,0.6-1,0.6-1.6
				c-0.1-0.6-0.4-1.1-1-1.4l-5.2-2.9c-0.2-0.1-2.3-1.3-4.9-1.5c-1.2-0.1-2.4,0-3.4,0.4c-2.4,0.9-14.2,5.9-17.6,7.3L31,368.5
				c-0.3-0.1-2.2-1.2-4.6-1.4c-3-0.2-5.4,1.1-6.8,3.6c-1.5,2.8-1.3,5.7,0.6,8.2c1.3,1.7,3,2.7,3.2,2.8L71,409
				C71.2,409.1,75.8,411.5,81.1,411.9z M87.7,406.7c-1.7,1-3.8,1.5-6.3,1.3c-4.4-0.3-8.4-2.4-8.5-2.4l-47.6-27.2
				c-0.5-0.2-4.3-2.6-2.4-5.8c0.8-1.2,1.7-1.7,3.2-1.6s2.9,0.9,3,0.9l22.2,12.6c0.6,0.3,1.1,0.4,1.7,0.1c0.2-0.1,15.8-6.7,18.4-7.6
				c0.5-0.2,1.1-0.3,1.7-0.3c1.7,0.1,3.2,1,3.3,1l3,1.7L67.5,391c-0.4,0.5-0.6,1-0.6,1.6c0.1,0.6,0.4,1.1,1,1.4l13.4,7.6
				c0.5,0.2,0.9,0.4,1.4,0.2l8.4-2.2l2.4,1.4L87.7,406.7z"/>
		</g>
	</g>
</g>
</svg>
